<svg width="40" height="40" viewBox="0 0 40 40" fill="none" xmlns="http://www.w3.org/2000/svg">
<path d="M15.5954 19.1865C19.1363 10.0708 28.6362 11.7979 35.5453 1C38.1535 7.51813 38.9998 14.3851 38.9998 21.7254C38.9998 24.1157 38.7994 26.1883 38.2225 27.7185C35.8666 33.9672 28.8884 37.1209 22.6426 34.7617C16.3969 32.4024 13.1807 25.4111 15.5954 19.1865Z" stroke="#2DA884" stroke-width="1.41" stroke-linecap="round" stroke-linejoin="round"/>
<path d="M7.90886 11.3661C7.90886 11.3661 16.977 20.8652 14.8179 39L22.2897 31.0402M19.4573 13.0863C16.9286 8.06387 9.54631 5.19685 5.13488 1.00342C1.214 8.3402 -0.316359 18.1537 2.29872 23.221C4.84815 28.1571 15.2497 27.5354 15.2497 27.5354C11.5308 21.1586 19.4573 13.0863 19.4573 13.0863Z" stroke="#2DA884" stroke-width="1.41" stroke-linecap="round" stroke-linejoin="round"/>
</svg>
