<svg width="38" height="38" viewBox="0 0 38 38" fill="none" xmlns="http://www.w3.org/2000/svg">
<path d="M23.341 17.999L28.0918 13.248L31.9755 17.0934C33.7659 18.8661 35.2001 20.9921 36.0136 23.3765C36.5421 24.9206 36.9846 26.7289 36.9994 28.466C37.0172 30.7049 36.6431 33.1486 35.4762 35.4172C33.0919 36.599 30.6572 36.9969 28.4659 36.9999C26.6695 37.0029 24.8375 36.5396 23.2935 35.9873C21.0428 35.1826 19.0327 33.8227 17.3343 32.142L13.2457 28.0948L17.9964 23.3438" stroke="#2DA884" stroke-width="1.98" stroke-linejoin="round"/>
<path d="M10.6501 1L1.00016 10.6504M7.93921 3.71102L24.1571 19.9296C25.324 21.0966 25.324 22.991 24.1571 24.158C22.9902 25.3249 21.0988 25.3249 19.9289 24.158L3.71105 7.93937L7.93921 3.71102Z" stroke="#2DA884" stroke-width="1.98"/>
</svg>
