<svg width="40" height="41" viewBox="0 0 40 41" fill="none" xmlns="http://www.w3.org/2000/svg">
<circle cx="20" cy="20.3809" r="20" fill="#2DA884"/>
<path d="M14.9406 10.1856C15.0062 10.1331 15.1036 10.0572 15.1584 10.0231C15.2568 9.96131 15.3877 9.90585 15.5567 9.85388C15.8192 9.77424 16.2314 9.78698 16.5366 9.88444C17.0859 10.0598 17.4439 10.2895 17.6306 10.587C17.7062 10.706 19.285 13.7577 19.2972 13.7827L19.321 13.8363L19.3251 13.8446C19.3745 13.9443 19.474 14.1455 19.5215 14.3897C19.6587 15.0942 19.3262 15.8615 18.711 16.2474L17.5463 16.9831C17.3758 17.0909 17.2313 17.2073 17.1967 17.2468C17.1951 17.2494 17.1929 17.2524 17.1905 17.2556C17.1879 17.259 17.185 17.2628 17.1823 17.267C17.1838 17.2776 17.1875 17.2932 17.1984 17.3111L21.799 24.6419C21.8257 24.6482 21.8676 24.6563 21.9296 24.6611C21.9895 24.6625 22.1739 24.61 22.2841 24.5411L23.458 23.8086C23.6886 23.6634 23.9611 23.573 24.2432 23.5497C24.6869 23.5135 25.1285 23.6384 25.4867 23.9023C25.6235 24.0031 25.7506 24.1296 25.8649 24.2786L25.8816 24.2973C25.8953 24.3135 27.9937 27.1046 28.082 27.2451C28.2007 27.4367 28.2739 27.6939 28.3066 28.0348C28.3304 28.284 28.2766 28.5364 28.2422 28.6649C28.2113 28.7802 28.1549 28.9497 28.0638 29.1004C27.8853 29.3954 27.7057 29.5972 27.515 29.7173C27.4395 29.764 27.2524 29.8528 27.2524 29.8528C26.379 30.2829 25.0396 30.8263 23.687 30.9383C23.101 30.9869 22.553 30.9508 22.0588 30.8315C19.0924 30.1231 15.8824 25.3211 14.969 23.8661C14.056 22.4108 11.1288 17.4314 11.7815 14.4493C12.1725 12.6686 13.729 11.1319 14.9406 10.1856Z" fill="white"/>
</svg>
