<svg width="38" height="38" viewBox="0 0 38 38" fill="none" xmlns="http://www.w3.org/2000/svg">
<path d="M16.1138 11.0233V10.4862C16.1138 9.2993 15.1515 8.33797 13.9633 8.33797H11.2751C9.79014 8.33797 8.58691 9.5399 8.58691 11.0233C8.58691 12.5066 9.79014 13.7085 11.2751 13.7085H14.5009C15.9859 13.7085 17.1891 14.9105 17.1891 16.3938C17.1891 17.8772 15.9859 19.0791 14.5009 19.0791H10.7375C9.54928 19.0791 8.58691 18.1178 8.58691 16.9309V16.3938M12.888 6.72681V8.33797V6.72681ZM12.888 19.0791V20.6903V19.0791Z" stroke="#2DA884" stroke-width="1.4"/>
<ellipse cx="12.4989" cy="14.4865" rx="11.4989" ry="11.4865" stroke="#2DA884" stroke-width="1.4"/>
<path d="M23.3798 12.1603C29.702 11.5609 35.3137 16.1947 35.9137 22.5101C36.5138 28.8255 31.875 34.4311 25.5527 35.0305" stroke="#2DA884" stroke-width="1.4"/>
<path d="M28.0835 21.8776V21.4676C28.0835 20.5616 27.3489 19.8278 26.4419 19.8278H24.3899C23.2564 19.8278 22.3379 20.7453 22.3379 21.8776C22.3379 23.0099 23.2564 23.9274 24.3899 23.9274H26.8523C27.9859 23.9274 28.9044 24.8449 28.9044 25.9772C28.9044 27.1095 27.9859 28.027 26.8523 28.027H23.9795C23.0725 28.027 22.3379 27.2932 22.3379 26.3872V25.9772M25.6211 18.5979V19.8278V18.5979ZM25.6211 28.027V29.2569V28.027Z" stroke="#2DA884" stroke-width="1.4"/>
<path d="M13.4217 25.9359C13.9633 32.2566 19.2955 35.5715 25.623 35.0305" stroke="#2DA884" stroke-width="1.4"/>
</svg>
