<svg width="34" height="39" viewBox="0 0 34 39" fill="none" xmlns="http://www.w3.org/2000/svg">
<path d="M16.9995 1C13.997 1 11.1175 2.20408 8.99448 4.34736C6.87143 6.49064 5.67871 9.39755 5.67871 12.4286C5.67871 15.4597 6.87143 18.3666 8.99448 20.5098C11.1175 22.6531 13.997 23.8572 16.9995 23.8572C20.0019 23.8572 22.8814 22.6531 25.0044 20.5098C27.1275 18.3666 28.3202 15.4597 28.3202 12.4286C28.3202 9.39755 27.1275 6.49064 25.0044 4.34736C22.8814 2.20408 20.0019 1 16.9995 1Z" stroke="#2DA884" stroke-width="1.89"/>
<path d="M24.6415 20.7144C22.6604 22.7144 19.8302 23.8572 17 23.8572C14.1698 23.8572 11.3396 22.7144 9.35849 20.7144L2 32.4287H8.22641L11.0566 37.0001L17 26.4287L22.9434 37.0001L25.7736 32.4287H32L24.6415 20.7144Z" stroke="#2DA884" stroke-width="1.89"/>
</svg>
