<svg width="41" height="41" viewBox="0 0 41 41" fill="none" xmlns="http://www.w3.org/2000/svg">
<circle cx="20.002" cy="20.3809" r="20" fill="#2DA884"/>
<path d="M20.0022 9.91943C15.9921 9.91943 12.7295 13.182 12.7295 17.1922C12.7295 22.2325 20.0094 30.8425 20.0094 30.8425C20.0094 30.8425 27.275 21.9847 27.275 17.1922C27.275 13.182 24.0125 9.91943 20.0022 9.91943ZM22.1966 19.3216C21.5915 19.9266 20.7969 20.2291 20.0022 20.2291C19.2077 20.2291 18.4128 19.9266 17.808 19.3216C16.598 18.1118 16.598 16.1431 17.808 14.9331C18.3939 14.3469 19.1733 14.0241 20.0022 14.0241C20.8312 14.0241 21.6104 14.3471 22.1966 14.9331C23.4066 16.1431 23.4066 18.1118 22.1966 19.3216Z" fill="white"/>
</svg>
